<svg enable-background="new 0 0 100 100" height="100" viewBox="0 0 100 100" width="100" xmlns="http://www.w3.org/2000/svg"><g clip-rule="evenodd" fill="#999" fill-rule="evenodd"><path d="m80.014 49.415c2.001.713 13.748-1.489 13.771 1.299.017 2.161-4.203 1.299-6.236 1.299-2.969 0-4.961 0-7.274 0-1.041 10.024-4.926 18.532-11.432 24.683-6.144 5.809-15.014 10.235-26.242 9.613-8.753-.484-16.432-4.223-21.825-9.094-1.53-1.382-4.699-3.319-3.118-5.976 1.988-.883 2.974 1.155 3.897 2.078 5.054 5.054 13.13 10.258 24.422 9.613 17.275-.986 28.979-13.728 30.658-30.658-5.716-.606-12.558-.087-18.706-.26-1.257 2.823-2.815 6.255-6.496 7.016-1.885.389-4.339 0-6.495 0-1.987 0-4.02.348-5.716-.521-.282-4.641-.74-11.63.26-15.848 8.419-.95 17.117-.86 18.187 6.755h18.707c-.813-16.644-13.511-30.845-31.697-30.917-8.643-.035-14.569 3.27-19.746 6.755-1.053.708-2.273 2.218-3.897.779-.907-2.252 1.698-3.434 3.118-4.417 4.684-3.242 10.501-5.634 17.927-6.235 19.482-1.577 36.964 13.398 37.933 34.036zm-37.154-2.599c-.203.058-.302.218-.26.52.057.203.218.302.52.26 2.719-.061 6.082.081 8.574 0 .764-.025 2.073.455 2.339-.52-3.206-.605-7.535-.087-11.173-.26zm0 3.378c-.203.057-.302.217-.26.52-.001.261.21.31.26.52h5.976c1.981 0 4.312.554 5.196-.779-3.216-.596-7.526-.096-11.172-.261zm5.976 3.638c-1.994 0-4.257 0-5.976 0-.203.057-.302.217-.26.52 3.292.605 7.708.087 11.432.26-.856-1.389-3.213-.78-5.196-.78z"/><path d="m64.425 36.424c-1.806.845-3.001-.968-3.897-1.819-3.456-3.281-8.092-6.414-15.329-6.495-19.624-.22-28.284 21.441-18.966 35.334 3.462 5.164 10.5 10.457 20.005 9.873 3.58-.22 6.469-1.178 8.834-2.338 2.052-1.007 3.883-4.021 7.015-2.858.876 1.89-.938 2.963-1.818 3.638-2.997 2.297-7.996 4.552-12.991 4.937-16.798 1.294-29.447-12.315-28.319-28.06.457-6.386 2.977-11.467 6.755-15.589 3.891-4.244 9.552-7.723 17.148-8.314 8.044-.626 14.658 2.579 19.226 6.495 1.361 1.168 3.892 2.918 2.337 5.196z"/></g></svg>