<svg enable-background="new 0 0 100 100" height="100" viewBox="0 0 100 100" width="100" xmlns="http://www.w3.org/2000/svg"><g clip-rule="evenodd" fill="#999" fill-rule="evenodd"><path d="m76.146 57.223c-4.295-.571-6.598-3.132-9.287-5.305-6.908 5.612-25.512 6.161-32.278 0-3.223 1.35-5.909 5.582-9.729 4.863-2.671-2.203-2.039-8.598-.883-12.382 1.592-5.215 5.867-9.127 10.17-11.495 2.434-8.763 6.031-23.56 12.381-28.741 6.931-5.656 12.3 6.201 14.591 11.496 2.547 5.882 4.303 11.017 5.748 16.803 5.991 3.64 14.166 13.85 9.287 24.761zm-19.013-36.7c1.668-8.591-11.35-11.771-13.266-3.98-1.208 4.913 1.619 7.393 4.863 8.844.488 3.785-1.446 9.996 2.212 10.611 1.638-2.194.589-7.073.884-10.611 3.065-1.261 4.865-2.593 5.307-4.864z"/><path d="m57.574 62.087c-.836 5.884-13.88 6.05-14.149-.441 2.537-1.686 3.367 1.488 5.747 1.769 3.318.39 5.703-3.151 8.402-1.328z"/><path d="m61.996 66.067c.068 4.033-4.953 6.549-9.287 7.073-6.116.742-11.848-2.14-14.147-5.307 0-.44 0-.883 0-1.323.355-.235.717-.464 1.326-.443 3.647 1.438 6.633 4.891 12.821 3.979 3.535-.52 5.592-4.095 9.287-3.979z"/><path d="m34.582 70.487h1.327c4.155 5.706 15.953 8.177 23.875 3.982 2.354-1.248 3.969-4.243 6.633-3.539 1.666 2.644-2.258 4.311-4.863 5.749-3.734 2.062-7.281 3.686-13.707 3.097-5.512-.508-14.858-4.49-13.265-9.289z"/></g><text fill="#b3b3b3" font-family="'RacingSansOne-Regular'" font-size="17.8484" transform="translate(0 96.543)">launchmaps</text></svg>