<svg enable-background="new 0 0 100 100" height="100" viewBox="0 0 100 100" width="100" xmlns="http://www.w3.org/2000/svg"><path d="m-2-1h101v92h-101z" fill="#fff"/><g fill="#0071bc"><path d="m49.083 4.415c-24.927 0-45.083 20.287-45.083 45.082 0 24.902 20.182 45.084 45.083 45.084s45.083-20.182 45.083-45.084c0-24.901-20.182-45.082-45.083-45.082m16.229 28.582c4.825 0 8.7 3.878 8.7 8.699 0 4.825-3.875 8.703-8.7 8.703-4.804 0-8.699-3.896-8.699-8.703-.046-4.821 3.872-8.699 8.699-8.699m-27.05-7.123c5.864 0 10.642 4.781 10.642 10.641s-4.777 10.729-10.642 10.729c-5.86 0-10.637-4.87-10.637-10.729 0-5.905 4.732-10.641 10.637-10.641m0 41.164v16.906c-10.818-3.381-19.386-11.724-23.171-22.365 4.688-5.046 16.545-7.573 23.171-7.573 2.39 0 5.411.317 8.567.946-7.396 3.923-8.567 9.11-8.567 12.086m10.821 18.526c-1.259 0-2.434 0-3.605-.181v-18.345c0-6.401 13.256-9.606 19.834-9.606 4.825 0 13.076 1.761 17.311 5.187-5.274 13.387-18.303 22.945-33.54 22.945z"/><path d="m-3-3h104v28h-104z"/><path d="m-9 22h19v86h-19z"/><path d="m86 25h31v83h-31z"/><path d="m-17 91h161v25h-161z"/><path d="m83 75h12v60h-12z"/><path d="m62 86h43v44h-43z"/><path d="m74 77h47v12h-47z"/><path d="m-17 15h32v14h-32z"/><path d="m-21 76h42v34h-42z"/><path d="m9 86h24v38h-24z"/><path d="m-17 72h31v13h-31z"/><path d="m14 84h11v51h-11z"/></g></svg>