<svg enable-background="new 0 0 100 100" height="100" viewBox="0 0 100 100" width="100" xmlns="http://www.w3.org/2000/svg"><g clip-rule="evenodd" fill-rule="evenodd"><path d="m79.942 30.208h1.326c.57.757.641 2.015.996 2.986h.994c.611-1.031.918-2.936 2.82-2.156.146.733.348 2.125 0 2.82.135.42.684.423.996.663 1.064-.317 1.268-2.063 2.322-1.99 1.52.104 1.113 2.183.332 3.317.205.347.482.624.83.83.979-.403 1.504-1.258 2.818-1.327.318.235.594.512.83.83-.154 1.173-.93 1.724-1.326 2.653-.078.521.445.439.496.83 1.068-.148 1.787-.647 2.986-.664 1.389 1.509-.779 2.408-1.326 3.483-.027.413.26.513.332.83 1.07-.174 1.916-.174 2.984 0 .088.464.244.862.332 1.327-.758.515-1.363 1.181-2.488 1.328v1.161c.873.344 2.016.418 2.82.829v1.327c-.668.659-1.963.691-2.986.995v.995c.855.474 1.74.915 2.49 1.493-.09.465-.244.863-.334 1.326-.732.148-2.123.348-2.818 0-.402.1-.369.627-.498.998.545.836 1.43 1.334 1.99 2.156-.188.422-.408.809-.664 1.16-1.221.061-2.043-.281-2.82-.662-.365.129-.414.578-.662.828.338 1.045 1.17 1.594 1.326 2.82-.346.207-.623.482-.828.828-1.066-.316-1.969-.795-2.654-1.49-.393.049-.309.574-.83.496.125 1.09.625 1.809.664 2.984-1.344 1.641-2.428-.561-3.484-1.158-.412-.027-.514.258-.83.33.1 1.182.322 2.383-.33 3.152-1.645.494-1.961-1.211-2.49-2.324-.332 0-.662 0-.994 0-.377.953-.41 2.246-.996 2.986-.441 0-.883 0-1.326 0-.76-.963-.139-2.799-1.328-2.986-1.314-.203-1.15 2.744-2.654 2.324-1.695-.475-.24-2.008-1.16-3.482-1.496-.377-1.338 1.998-3.152 1.822-1.742-1.129.482-3.012-.332-3.814-1.014-1.002-1.684 1.162-3.316.996-.172-.438-.658-.561-.83-.996.191-1.156 1.844-1.98 1.162-2.984-.916-.807-1.877.619-3.318.33-1.736-1.785 1.764-2.346 1.162-3.98-1.416-.506-3.508.32-3.484-1.328.018-1.236 2.762-1.141 2.488-2.488-.316-1.56-3.518.158-2.986-2.487.465-1.084 2.887-.209 2.986-1.66-.477-1.3-2.588-.907-2.488-2.321.131-1.879 2.611-.073 3.484-1.66.18-1.012-1.814-1.279-1.826-2.655.193-.249.48-.405.498-.829 1.547-.393 2.549.987 3.318.332.814-1.177-1.033-1.888-.996-3.318 1.041-1.986 2.771.604 3.98.332.807-.973-1.461-3.484.664-3.981 1.395.154 1.424 2.375 2.986 1.825.699-.803-.486-3.446 1.326-3.483 1.561.154.896 2.531 2.654 2.488.871-.514.553-2.214 1.162-2.987zm-8.793 7.299c.504.991 1.162 1.825 2.158 2.322 3.189-3.548 11.445-3.13 14.762 0 .57-.812 1.564-1.203 1.826-2.322-3.787-4.5-14.945-4.453-18.746 0zm1.327 4.976c2.08.798 3.775 1.977 5.975 2.654.521-1.811.727-4.788.498-6.801-2.848.692-5.294 1.787-6.473 4.147zm9.623-4.146c-.25 1.923.258 4.485.332 6.635 2.473-.511 4.338-1.634 6.139-2.82-1.337-2.094-3.526-3.333-6.471-3.815zm-12.276.331c-2.695 2.717-4.898 8.226-3.318 13.601 1.092-.123 2-.432 2.82-.827-.836-4.799.805-8.311 2.82-10.784-.714-.722-1.134-1.741-2.322-1.99zm21.067 0c-.615.737-1.824 1.176-1.824 2.156 0 .591 1.479 2.05 1.992 3.151 1.037 2.232 1.215 4.96.662 7.466.877.396 1.746.798 2.986.827 1.393-5.457-.473-11.29-3.816-13.6zm-20.071 13.77c2.221-.93 4.037-2.266 5.639-3.816-1.719-1.433-3.639-2.663-5.639-3.815-.843 1.976-.951 5.681 0 7.631zm19.575-7.466c-1.98.517-4.146 2.263-5.641 3.815 1.758 1.338 3.428 2.766 5.641 3.65.744-2.189.859-5.312 0-7.465zm-13.436 4.811c.869 3.655 7.354 3.319 7.299-1.162-.029-2.155-1.547-3.937-4.314-3.483-2.036.333-3.672 1.763-2.985 4.645zm-4.482 5.309c1.412 2.129 3.713 3.367 6.637 3.98.201-1.9-.293-4.436-.332-6.635-2.311.034-4.175 1.889-6.305 2.655zm10.121-2.822c-.436 1.844-.613 4.793-.498 6.635 2.992-.385 5.637-1.986 6.471-3.98-2.051-.827-3.557-2.195-5.973-2.655zm-1.826 7.962c-4.223.129-7.35-1.943-9.287-4.479-.936-1.219-1.27-2.832-2.324-2.986-.715-.104-1.555.588-2.156.998 2.121 5.828 7.533 10.33 15.594 9.453 5.803-.631 9.824-4.828 11.611-9.621-.928-.291-1.688-.746-2.82-.83-2.132 4.272-5.404 7.309-10.618 7.465z" fill="#afafaf"/><path d="m81.269 30.208h17.916v36.991c-5.971 0-11.943 0-17.916 0 .586-.74.619-2.033.996-2.986h.994c.529 1.113.846 2.818 2.49 2.324.652-.77.43-1.971.33-3.152.316-.072.418-.357.83-.33 1.057.598 2.141 2.799 3.484 1.158-.039-1.176-.539-1.895-.664-2.984.521.078.438-.447.83-.496.686.695 1.588 1.174 2.654 1.49.205-.346.482-.621.828-.828-.156-1.227-.988-1.775-1.326-2.82.248-.25.297-.699.662-.828.777.381 1.6.723 2.82.662.256-.352.477-.738.664-1.16-.561-.822-1.445-1.32-1.99-2.156.129-.371.096-.898.498-.998.695.348 2.086.148 2.818 0 .09-.463.244-.861.334-1.326-.75-.578-1.635-1.02-2.49-1.493 0-.331 0-.663 0-.995 1.023-.304 2.318-.336 2.986-.995 0-.442 0-.885 0-1.327-.805-.411-1.947-.485-2.82-.829 0-.388 0-.774 0-1.161 1.125-.146 1.73-.812 2.488-1.328-.088-.464-.244-.862-.332-1.327-1.068-.174-1.914-.174-2.984 0-.072-.317-.359-.417-.332-.83.547-1.075 2.715-1.975 1.326-3.483-1.199.017-1.918.516-2.986.664-.051-.391-.574-.309-.496-.83.396-.929 1.172-1.48 1.326-2.653-.236-.317-.512-.594-.83-.83-1.314.068-1.84.924-2.818 1.327-.348-.206-.625-.482-.83-.83.781-1.134 1.188-3.212-.332-3.317-1.055-.073-1.258 1.673-2.322 1.99-.312-.24-.861-.243-.996-.663.348-.694.146-2.086 0-2.82-1.902-.78-2.209 1.125-2.82 2.156-.332 0-.662 0-.994 0-.356-.972-.426-2.23-.996-2.987z" fill="#fff"/><path d="m89.896 37.507c-.262 1.119-1.256 1.509-1.826 2.322-3.316-3.13-11.572-3.548-14.762 0-.996-.497-1.654-1.331-2.158-2.322 3.8-4.453 14.958-4.5 18.746 0zm-11.612-2.819c-.256.697.857.025.828.497.053.667-.084 1.523.498 1.659.146-.61-.285-2.103.664-2.323-.658.061-1.589-.152-1.99.167zm2.322 1.989c.799-.745 1.611.189 2.156 0-.336-.604-.404-1.476-.664-2.157-.166 0-.332 0-.498 0-.31.741-.777 1.325-.994 2.157zm2.819.498c.637.137.195-.799.832-.663.424.128.033 1.068.662.995-.275-1.048.523-1.025.496-1.824-.227-.547-.877-.671-1.492-.83-.182.696-.77 1.703-.498 2.322zm-7.629-.498c.512.576 1.213.821 1.99.333 1.311-2.11-2.619-2.945-1.99-.333zm10.283 1.493c.557-.661 1.293-1.139 1.99-1.658-.623-.128-.791.202-1.326.166-.004-.495.016-1.01-.496-.995.336 1.191-.242 1.817-.168 2.487zm-12.939-1.327c.535.461.455 1.538 1.328 1.658.182-.424-.504-.791 0-.995.525-.027.555.441 1.162.332-.395-1.039-1.596-2.775-2.49-.995z" fill="#fff"/><g fill="#afafaf"><path d="m80.274 34.521c-.949.22-.518 1.713-.664 2.323-.582-.135-.445-.992-.498-1.659.029-.472-1.084.2-.828-.497.401-.319 1.332-.106 1.99-.167z"/><path d="m81.601 34.521h.498c.26.681.328 1.553.664 2.157-.545.189-1.357-.745-2.156 0 .216-.833.683-1.417.994-2.157zm-.166 1.493c.611.354.748-.845.166-.664.037.313-.186.366-.166.664z"/><path d="m83.923 34.853c.615.159 1.266.283 1.492.83.027.799-.771.776-.496 1.824-.629.073-.238-.867-.662-.995-.637-.136-.195.8-.832.663-.272-.619.316-1.626.498-2.322zm.166.83c-.035.493.594.584.83.332.115-.576-.582-.596-.83-.332z"/><path d="m77.786 37.01c-.777.489-1.479.244-1.99-.333-.629-2.612 3.301-1.777 1.99.333zm-1.328-.167c.596.098.803-.192 1.162-.332.326-2.121-2.424-.747-1.162.332z"/></g><path d="m77.62 36.512c-.359.139-.566.429-1.162.332-1.262-1.08 1.488-2.454 1.162-.332z" fill="#fff"/><path d="m81.601 35.351c.582-.181.445 1.018-.166.664-.02-.299.203-.352.166-.664z" fill="#fff"/><path d="m84.919 36.014c-.236.253-.865.161-.83-.332.248-.263.945-.243.83.332z" fill="#fff"/><path d="m86.247 35.683c.512-.016.492.5.496.995.535.036.703-.293 1.326-.166-.697.519-1.434.997-1.99 1.658-.074-.67.504-1.296.168-2.487z" fill="#afafaf"/><path d="m75.63 37.838c-.607.109-.637-.359-1.162-.332-.504.204.182.571 0 .995-.873-.121-.793-1.197-1.328-1.658.894-1.78 2.095-.044 2.49.995zm-1.162-1.326c-.221 0-.443 0-.664 0-.215.85.812.772.664 0z" fill="#afafaf"/><path d="m73.804 36.512h.664c.148.772-.879.85-.664 0z" fill="#fff"/><path d="m88.569 42.151c-1.801 1.187-3.666 2.309-6.139 2.82-.074-2.149-.582-4.711-.332-6.635 2.946.483 5.135 1.722 6.471 3.815z" fill="#fff"/><path d="m72.146 40.659c-2.016 2.473-3.656 5.985-2.82 10.784-.82.396-1.729.704-2.82.827-1.58-5.375.623-10.884 3.318-13.601 1.187.248 1.607 1.267 2.322 1.99z" fill="#fff"/><path d="m94.706 52.27c-1.24-.029-2.109-.432-2.986-.827.553-2.506.375-5.234-.662-7.466-.514-1.102-1.992-2.56-1.992-3.151 0-.98 1.209-1.419 1.824-2.156 3.343 2.308 5.209 8.141 3.816 13.6z" fill="#fff"/><path d="m.815 54.594c0-4.701 0-9.401 0-14.101 5.375-1.534 12.331.392 9.954 5.972-.43 1.007-1.338 1.253-2.157 2.157.903 1.917 2.019 3.621 2.489 5.973-.545.338-1.68.09-2.489.164-.944-1.709-1.692-3.613-2.489-5.473-.899-.04-1.614-.266-2.653-.166-.103 1.833.21 4.081-.166 5.639-.809-.075-1.943.173-2.489-.165zm2.655-11.779v3.815c5.986 2.078 6.398-5.894 0-3.815z" fill="#afafaf"/><path d="m26.527 41.82c.333.496.094 1.565.167 2.323h2.653c.264.468.264 1.852 0 2.321-.829 0-1.658 0-2.488 0-.254 1.656-.362 4.551.167 5.973.574.254 1.512.145 2.322.164.213.617.483 1.492.167 2.156-5.515 1.891-5.69-2.928-5.31-8.127-.142-.411-1.154.049-1.327-.332 0-.664 0-1.327 0-1.991.242-.256.85-.146 1.327-.165 0-.609 0-1.217 0-1.825.678-.261 1.335-.545 2.322-.497z" fill="#afafaf"/><path d="m3.47 46.63c0-1.271 0-2.543 0-3.815 6.398-2.079 5.986 5.893 0 3.815z" fill="#fff"/><path d="m16.74 43.976c1.365-.11 2.922-.036 3.981.996 1.712 1.668 1.9 7.384-.166 9.122-1.604 1.352-5.04 1.188-6.47.168-2.153-1.537-2.15-6.875-.829-8.792.749-1.087 2.112-1.382 3.484-1.494zm1.659 2.488c-3.864-1.753-4.036 4.31-2.488 5.973.815.322 2.179.189 2.821-.168.957-1.307.991-4.891-.333-5.805z" fill="#afafaf"/><path d="m39.134 54.924c-2.487-1.48-5.483 1.377-7.63-.662-1.164-1.105-1.208-3.628-.332-4.811 1.136-1.531 3.729-.91 5.64-1.493.211-2.796-3.695-.992-5.309-1.493-.318-.4-.104-1.333-.166-1.99 2.195-.496 5.009-1.172 6.635-.167 2.668 1.649.867 7.138 1.162 10.616zm-5.806-4.147c-.79 2.2 1.682 2.157 3.318 1.661 0-.775 0-1.549 0-2.324-1.304.024-2.621.032-3.318.663z" fill="#afafaf"/><path d="m44.277 44.972c1.023-.249 1.541-1.002 2.987-.829.326.447.098 1.449.165 2.156-1.256.237-2.244.742-3.152 1.327v6.968c-.515.264-1.973.264-2.488 0 0-3.428 0-6.857 0-10.286.4-.317 1.333-.104 1.99-.165.519-.077.531.354.498.829z" fill="#afafaf"/><path d="m50.912 44.143c.923 2.395 1.474 5.163 2.158 7.796 1.121-2.251 1.428-5.319 2.322-7.796.758.072 1.826-.168 2.322.165-1.111 3.135-1.533 9.513-3.15 12.442-.924 1.672-2.989 1.938-5.642 1.16-.308-.355-.112-1.215-.167-1.826 1.084-.236 3.615.557 3.816-.992-.273-.559-1.198-.461-1.493-.998-.713-3.323-1.884-6.187-2.323-9.786.448-.326 1.45-.099 2.157-.165z" fill="#afafaf"/><path d="m79.942 45.138c2.768-.454 4.285 1.329 4.314 3.483.055 4.48-6.43 4.816-7.299 1.162-.686-2.882.95-4.312 2.985-4.645zm1.327 6.801c3.76-.653 3.131-6.871-.994-6.47-4.614.448-3.221 7.203.994 6.47z" fill="#fff"/><path d="m80.274 45.47c4.125-.401 4.754 5.816.994 6.47-4.214.732-5.607-6.023-.994-6.47zm-.332.994c-2.336.855-1.621 4.479.664 4.479 2.256 0 3.299-3.605.498-4.313-.039-.294.166-.831-.334-.663-.474-.033-.904-.021-.828.497z" fill="#afafaf"/><path d="m80.771 45.967c.5-.167.295.369.334.663 2.801.708 1.758 4.313-.498 4.313-2.285 0-3-3.624-.664-4.479-.077-.518.353-.53.828-.497z" fill="#fff"/><path d="m18.731 52.27c-.642.357-2.005.49-2.821.168-1.547-1.664-1.376-7.726 2.488-5.973 1.325.913 1.291 4.497.333 5.805z" fill="#fff"/><path d="m36.646 50.114v2.324c-1.636.496-4.108.539-3.318-1.661.697-.631 2.014-.639 3.318-.663z" fill="#fff"/><path d="m91.388 52.768c1.133.084 1.893.539 2.82.83-1.787 4.793-5.809 8.99-11.611 9.621-8.061.877-13.473-3.625-15.594-9.453.602-.41 1.441-1.102 2.156-.998 1.055.154 1.389 1.768 2.324 2.986 1.938 2.535 5.064 4.607 9.287 4.479 5.215-.157 8.487-3.194 10.618-7.465zm-23.223 2.986c.719.223 1.844-.439 2.156-1.16-.963.142-1.566.644-2.156 1.16zm24.385.33c.48-.236.684-.754.828-1.326-.66-.051-.449.768-.994.83-.516-.314-.922-.738-1.66-.83.201.851 1.181.922 1.826 1.326zm-23.721.832c.594.041.607-.498 1.16-.498.078.676-.615 1.127-.166 1.66.721-.441 1.486-.838 1.824-1.66-.709-.256-.846.908-1.16.498.043-.568.42-.797.332-1.494-.865.297-1.726.598-1.99 1.494zm20.9-.664c.26.846.559 1.652 1.328 1.99-.219-1.1.779-.988 1.16-1.492-.759-.17-1.671-.92-2.488-.498zm-18.58 3.152c.984-.062.982-1.635 2.158-.996-.207-.734-.816-1.064-1.494-1.328.92 1.094-.609 1.26-.664 2.324zm18.084-1.162c-.459.057-1.168-.475-1.494 0 .648.457.699 1.512 1.658 1.66.066-.52-.838-.916-.498-1.162.568.029 1.189.555 1.66.164-.412-.748-.867-1.453-1.826-1.656-.15.549.922.719.5.994zm-16.589 2.322c.57.15.721.717 1.494.664.059-.668-.959-.258-.83-.996.219-.002.15-.291.332-.33.107.221.354.309.662.33.176-.617-.621-.262-.498-.828.168 0 .197-.135.334-.166.346.094.473.41.994.332-.152-.623-.869-.678-1.328-.996-.295.756-.922 1.178-1.16 1.99zm15.261-.994c-.662-.938-2.689-.564-2.156 1.162.662.934 2.688.561 2.156-1.162zm-12.607 2.321c.092-.402.141-.852.662-.828.385.281-.158 1.486.664 1.326-.271-1.102.461-1.197.498-1.99-.154-.564-.93-.506-1.326-.828-.242.587-1.258 1.794-.498 2.32zm10.117.168c.057-.939-.486-1.283-.496-2.156-.166 0-.334 0-.498 0 .189.859.232 1.867.994 2.156zm-3.482-1.163c1.453-.402.521 1.578 1.326 1.824.391-.553-.111-1.359-.164-1.988.316-.072.713-.062.664-.5-.608.223-1.664-.003-1.826.664zm-4.479 1.661c.791.182.229-.99.83-.998.209.51.25 1.188.828 1.326.438-.391.406-1.947.332-2.32-.707-.152-.01 1.096-.664.994-.18-.371-.275-.828-.496-1.16-.166 0-.334 0-.498 0 .049.876-.43 1.23-.332 2.158zm2.488.328c.65-.322 1.371-.463 1.99 0-.266-.893-.316-2.004-1.162-2.32-.363.685-.595 1.503-.828 2.32z" fill="#fff"/><path d="m70.321 54.594c-.312.721-1.438 1.383-2.156 1.16.59-.516 1.193-1.018 2.156-1.16z" fill="#afafaf"/><path d="m90.724 54.758c.738.092 1.145.516 1.66.83.545-.062.334-.881.994-.83-.145.572-.348 1.09-.828 1.326-.645-.404-1.625-.475-1.826-1.326z" fill="#afafaf"/><path d="m70.819 55.422c.088.697-.289.926-.332 1.494.314.41.451-.754 1.16-.498-.338.822-1.104 1.219-1.824 1.66-.449-.533.244-.984.166-1.66-.553 0-.566.539-1.16.498.264-.896 1.125-1.197 1.99-1.494z" fill="#afafaf"/><path d="m92.218 56.75c-.381.504-1.379.393-1.16 1.492-.77-.338-1.068-1.145-1.328-1.99.816-.422 1.728.328 2.488.498zm-1.16.33c.051-.434-.348-.428-.664-.496.009.447.378.797.664.496z" fill="#afafaf"/><path d="m90.394 56.584c.316.068.715.062.664.496-.286.301-.655-.049-.664-.496z" fill="#fff"/><path d="m71.813 57.08c.678.264 1.287.594 1.494 1.328-1.176-.639-1.174.934-2.158.996.055-1.064 1.584-1.23.664-2.324z" fill="#afafaf"/><path d="m88.733 57.248c.959.203 1.414.908 1.826 1.656-.471.391-1.092-.135-1.66-.164-.34.246.564.643.498 1.162-.959-.148-1.01-1.203-1.658-1.66.326-.475 1.035.057 1.494 0 .422-.275-.65-.445-.5-.994z" fill="#afafaf"/><path d="m73.804 58.574c.459.318 1.176.373 1.328.996-.521.078-.648-.238-.994-.332-.137.031-.166.166-.334.166-.123.566.674.211.498.828-.309-.021-.555-.109-.662-.33-.182.039-.113.328-.332.33-.129.738.889.328.83.996-.773.053-.924-.514-1.494-.664.238-.812.865-1.234 1.16-1.99z" fill="#afafaf"/><path d="m85.749 60.732c-.533-1.727 1.494-2.1 2.156-1.162.532 1.723-1.494 2.096-2.156 1.162zm.33-.998c-.379 1.195 1.537 1.346 1.494.332-.119-.74-1.027-.775-1.494-.332z" fill="#afafaf"/><path d="m87.573 60.066c.043 1.014-1.873.863-1.494-.332.467-.443 1.375-.408 1.494.332z" fill="#fff"/><path d="m75.796 59.57c.396.322 1.172.264 1.326.828-.037.793-.77.889-.498 1.99-.822.16-.279-1.045-.664-1.326-.521-.023-.57.426-.662.828-.76-.525.256-1.732.498-2.32zm.828 1.162c.051-.439-.23-.545-.664-.5-.125.586.434.743.664.5z" fill="#afafaf"/><path d="m84.421 59.902h.498c.01.873.553 1.217.496 2.156-.762-.288-.805-1.296-.994-2.156z" fill="#afafaf"/><path d="m75.96 60.232c.434-.045.715.061.664.5-.23.243-.789.086-.664-.5z" fill="#fff"/><path d="m83.759 60.232c.049.438-.348.428-.664.5.053.629.555 1.436.164 1.988-.805-.246.127-2.227-1.326-1.824.162-.667 1.218-.441 1.826-.664z" fill="#afafaf"/><path d="m77.786 60.398h.498c.221.332.316.789.496 1.16.654.102-.043-1.146.664-.994.074.373.105 1.93-.332 2.32-.578-.139-.619-.816-.828-1.326-.602.008-.039 1.18-.83.998-.098-.927.381-1.281.332-2.158z" fill="#afafaf"/><path d="m80.771 60.564c.846.316.896 1.428 1.162 2.32-.619-.463-1.34-.322-1.99 0 .232-.816.464-1.634.828-2.32zm-.165 1.495c.607.354.748-.846.164-.664.038.312-.185.363-.164.664z" fill="#afafaf"/><path d="m80.771 61.395c.584-.182.443 1.018-.164.664-.022-.301.201-.352.164-.664z" fill="#fff"/></g></svg>