<svg enable-background="new 0 0 105.954 88.04" height="88.04" viewBox="0 0 105.954 88.04" width="105.954" xmlns="http://www.w3.org/2000/svg"><circle cx="49.456" cy="54.885" fill="#b3b3b3" r="33.154"/><path d="m49.456 67.706c-.944 0-1.71-.766-1.71-1.709 0-.945.766-1.709 1.71-1.709s1.71.764 1.71 1.709c0 .943-.766 1.709-1.71 1.709m-13.675-23.932h27.35v18.802h-27.35m27.349 3.421c1.889 0 3.419-1.531 3.419-3.42v-18.803c0-1.897-1.539-3.419-3.419-3.419h-27.35c-1.897 0-3.419 1.521-3.419 3.419v18.802c0 1.889 1.53 3.42 3.419 3.42h-6.838c0 1.887 1.531 3.418 3.419 3.418h34.188c1.888 0 3.419-1.531 3.419-3.418h-6.838z" fill="#fff"/><circle cx="15.95" cy="26.004" fill="#ccc" r="15.95"/><path d="m12.101 16.116h8.4c3.2 0 5.8 2.6 5.8 5.8v8.4c0 3.203-2.597 5.8-5.8 5.8h-8.4c-3.2 0-5.8-2.6-5.8-5.8v-8.4c0-3.204 2.597-5.8 5.8-5.8m-.2 2c-1.988 0-3.6 1.612-3.6 3.6v8.8c0 1.99 1.61 3.6 3.6 3.6h8.8c1.988 0 3.6-1.611 3.6-3.6v-8.8c0-1.99-1.609-3.6-3.6-3.6zm9.65 1.5c.69 0 1.25.56 1.25 1.25s-.56 1.25-1.25 1.25-1.25-.56-1.25-1.25.56-1.25 1.25-1.25m-5.25 1.5c2.762 0 5 2.239 5 5 0 2.762-2.238 5-5 5-2.761 0-5-2.238-5-5s2.239-5 5-5m0 2c-1.657 0-3 1.343-3 3 0 1.656 1.343 3 3 3 1.656 0 3-1.344 3-3 0-1.657-1.343-3-3-3z" fill="#fff"/><circle cx="82.477" cy="23.477" fill="#ccc" r="23.477"/><path d="m70.384 20.81h3l2-2h6l2 2h3c1.104 0 2 .896 2 2v12c0 1.104-.896 2-2 2h-16c-1.104 0-2-.896-2-2v-12c0-1.104.895-2 2-2m8 3c-2.761 0-5 2.239-5 5 0 2.762 2.239 5 5 5 2.762 0 5-2.238 5-5 0-2.761-2.238-5-5-5m0 2c1.656 0 3 1.343 3 3 0 1.656-1.344 3-3 3-1.657 0-3-1.344-3-3 0-1.657 1.343-3 3-3z" fill="#e6e6e6"/><path d="m92.563 20.31v-3.5c0-.552-.447-1-1-1h-1c2.24-1.61 2.76-4.73 1.15-7-1.609-2.22-4.73-2.74-6.98-1.13-.67.48-1.21 1.13-1.57 1.86-2.35-1.45-5.43-.73-6.88 1.64-1.44 2.35-.72 5.43 1.64 6.88.21.12.42.25.64.33v8.42c0 .553.448 1 1 1h12c.553 0 1-.447 1-1v-3.5l4 4v-11zm-5-10.5c1.105 0 2 .896 2 2s-.895 2-2 2c-1.104 0-2-.896-2-2s.897-2 2-2m-6.999 2c1.104 0 2 .896 2 2s-.896 2-2 2-2-.896-2-2 .895-2 2-2z" fill="#fff"/></svg>