<?xml version="1.0" encoding="utf-8"?>
<!-- Generator: Adobe Illustrator 15.1.0, SVG Export Plug-In . SVG Version: 6.00 Build 0)  -->
<!DOCTYPE svg PUBLIC "-//W3C//DTD SVG 1.1//EN" "http://www.w3.org/Graphics/SVG/1.1/DTD/svg11.dtd">
<svg version="1.1" id="Layer_1" xmlns="http://www.w3.org/2000/svg" xmlns:xlink="http://www.w3.org/1999/xlink" x="0px" y="0px"
	 width="105.954px" height="88.04px" viewBox="0 0 105.954 88.04" enable-background="new 0 0 105.954 88.04" xml:space="preserve">
<circle fill="#B3B3B3" cx="49.456" cy="54.885" r="33.154"/>
<path fill="#FFFFFF" d="M49.456,67.706c-0.944,0-1.71-0.766-1.71-1.709c0-0.945,0.766-1.709,1.71-1.709s1.71,0.764,1.71,1.709
	C51.166,66.94,50.4,67.706,49.456,67.706 M35.781,43.774h27.35v18.802h-27.35 M63.13,65.997c1.889,0,3.419-1.531,3.419-3.42V43.774
	c0-1.897-1.539-3.419-3.419-3.419h-27.35c-1.897,0-3.419,1.521-3.419,3.419v18.802c0,1.889,1.53,3.42,3.419,3.42h-6.838
	c0,1.887,1.531,3.418,3.419,3.418h34.188c1.888,0,3.419-1.531,3.419-3.418H63.13z"/>
<circle fill="#CCCCCC" cx="15.95" cy="26.004" r="15.95"/>
<path fill="#FFFFFF" d="M12.101,16.116h8.4c3.2,0,5.8,2.6,5.8,5.8v8.4c0,3.203-2.597,5.8-5.8,5.8h-8.4c-3.2,0-5.8-2.6-5.8-5.8v-8.4
	C6.301,18.712,8.898,16.116,12.101,16.116 M11.901,18.116c-1.988,0-3.6,1.612-3.6,3.6l0,0v8.8c0,1.99,1.61,3.6,3.6,3.6h8.8
	c1.988,0,3.6-1.611,3.6-3.6l0,0v-8.8c0-1.99-1.609-3.6-3.6-3.6H11.901 M21.551,19.616c0.69,0,1.25,0.56,1.25,1.25
	s-0.56,1.25-1.25,1.25s-1.25-0.56-1.25-1.25S20.861,19.616,21.551,19.616 M16.301,21.116c2.762,0,5,2.239,5,5c0,2.762-2.238,5-5,5
	c-2.761,0-5-2.238-5-5C11.301,23.354,13.54,21.116,16.301,21.116 M16.301,23.116c-1.657,0-3,1.343-3,3c0,1.656,1.343,3,3,3
	c1.656,0,3-1.344,3-3C19.301,24.459,17.958,23.116,16.301,23.116z"/>
<circle fill="#CCCCCC" cx="82.477" cy="23.477" r="23.477"/>
<path fill="#E6E6E6" d="M70.384,20.81h3l2-2h6l2,2h3c1.104,0,2,0.896,2,2v12c0,1.104-0.896,2-2,2h-16c-1.104,0-2-0.896-2-2v-12
	C68.384,21.706,69.279,20.81,70.384,20.81 M78.384,23.81c-2.761,0-5,2.239-5,5c0,2.762,2.239,5,5,5c2.762,0,5-2.238,5-5
	C83.384,26.049,81.146,23.81,78.384,23.81 M78.384,25.81c1.656,0,3,1.343,3,3c0,1.656-1.344,3-3,3c-1.657,0-3-1.344-3-3
	C75.384,27.153,76.727,25.81,78.384,25.81z"/>
<path fill="#FFFFFF" d="M92.563,20.31v-3.5c0-0.552-0.447-1-1-1h-1c2.24-1.61,2.76-4.73,1.15-7c-1.609-2.22-4.73-2.74-6.98-1.13
	c-0.67,0.48-1.21,1.13-1.57,1.86c-2.35-1.45-5.43-0.73-6.88,1.64c-1.44,2.35-0.72,5.43,1.64,6.88c0.21,0.12,0.42,0.25,0.64,0.33
	v8.42c0,0.553,0.448,1,1,1h12c0.553,0,1-0.447,1-1v-3.5l4,4v-11L92.563,20.31 M87.563,9.81c1.105,0,2,0.896,2,2s-0.895,2-2,2
	c-1.104,0-2-0.896-2-2S86.46,9.81,87.563,9.81 M80.564,11.81c1.104,0,2,0.896,2,2s-0.896,2-2,2s-2-0.896-2-2
	S79.459,11.81,80.564,11.81z"/>
</svg>
